<?xml version="1.0" standalone="no"?>
<!DOCTYPE svg PUBLIC "-//W3C//DTD SVG 20010904//EN"
 "http://www.w3.org/TR/2001/REC-SVG-20010904/DTD/svg10.dtd">
<svg version="1.0" xmlns="http://www.w3.org/2000/svg"
 width="3000.000000pt" height="2000.000000pt" viewBox="0 0 3000.000000 2000.000000"
 preserveAspectRatio="xMidYMid meet">
<metadata>
Created by potrace 1.16, written by Peter Selinger 2001-2019
</metadata>
<g transform="translate(0.000000,2000.000000) scale(0.100000,-0.100000)"
fill="#000000" stroke="none">
<path d="M23122 13214 c-46 -32 -91 -159 -92 -257 l-1 -42 -37 74 c-47 95 -98
151 -139 151 -66 0 -100 -85 -90 -229 9 -149 82 -322 179 -427 25 -27 36 -47
32 -58 -3 -9 -10 -16 -14 -16 -15 0 -80 -106 -100 -162 -30 -85 -42 -223 -31
-337 15 -137 29 -201 48 -201 26 0 187 171 234 250 45 75 104 206 129 288 12
37 17 42 34 37 12 -4 91 -9 176 -12 179 -6 325 10 528 57 72 17 132 30 135 30
3 0 8 -12 11 -27 4 -16 23 -62 43 -103 75 -154 241 -274 437 -315 68 -14 92
-16 105 -7 9 7 38 23 65 38 143 76 320 -11 412 -203 36 -75 38 -82 38 -183 -1
-101 -2 -108 -39 -184 -44 -92 -96 -146 -177 -184 -32 -15 -58 -32 -58 -38 0
-32 43 -170 70 -225 39 -77 63 -105 114 -131 70 -36 151 -10 236 75 68 67 119
147 190 292 109 224 153 387 153 565 1 183 -54 328 -171 451 -66 71 -189 160
-247 179 -28 9 -32 16 -44 73 -40 198 -199 371 -416 450 -265 98 -567 109
-1120 41 -241 -30 -262 -27 -324 35 -21 21 -60 79 -86 127 -61 112 -89 144
-130 144 -17 0 -41 -7 -53 -16z"/>
<path d="M24921 11799 c-131 -26 -221 -150 -221 -306 0 -75 15 -83 24 -13 7
50 43 100 73 100 7 0 13 4 13 10 0 5 26 17 57 26 48 14 65 15 110 4 66 -14 77
-8 32 19 -61 37 -153 39 -207 4 -22 -14 -23 -13 -12 6 21 40 83 93 141 121 32
15 56 30 52 34 -3 3 -9 6 -12 5 -3 -1 -26 -5 -50 -10z"/>
<path d="M13610 11739 c-233 -9 -399 -48 -570 -134 -297 -149 -482 -409 -584
-820 -49 -202 -68 -358 -91 -760 -31 -544 -69 -799 -151 -1013 -117 -304 -158
-483 -152 -661 5 -137 27 -204 88 -274 l40 -45 -11 -56 c-47 -254 -64 -739
-34 -981 21 -179 77 -398 115 -453 15 -21 21 -22 248 -23 128 -1 235 1 238 4
3 2 -9 19 -25 38 -82 89 -135 250 -134 404 1 100 15 161 92 415 41 135 199
592 254 735 9 22 59 155 111 295 118 315 252 659 266 682 17 30 12 42 -39 85
-133 115 -271 369 -291 536 -13 110 10 148 83 139 31 -4 87 -71 87 -104 0 -10
4 -18 9 -18 4 0 11 26 14 58 5 63 27 116 51 125 27 11 74 -13 86 -44 7 -16 15
-29 19 -29 3 1 16 22 28 49 22 46 22 49 7 132 -8 46 -18 137 -21 201 l-6 117
44 17 c130 52 251 134 332 225 80 91 97 113 115 151 20 45 30 48 34 11 3 -27
4 -26 32 22 29 51 101 125 121 125 6 0 20 7 31 15 18 13 16 14 -27 15 -33 0
-57 -7 -83 -25 -20 -13 -36 -23 -36 -21 0 2 7 21 16 42 18 41 30 83 44 149 5
22 15 70 23 106 18 77 24 126 33 267 l7 104 25 -34 c43 -57 177 -184 238 -225
131 -89 278 -143 391 -143 51 0 193 27 193 36 0 5 -35 61 -117 187 -101 155
-204 244 -352 303 -72 29 -193 60 -276 70 -79 9 -309 11 -515 3z"/>
<path d="M23836 11648 c-21 -29 -20 -97 0 -148 9 -22 17 -40 18 -40 0 0 19 7
41 14 35 12 40 18 43 48 2 18 -2 51 -8 73 -22 73 -64 97 -94 53z"/>
<path d="M23182 11545 c-15 -33 -15 -77 -1 -126 11 -33 16 -38 52 -44 28 -5
42 -3 48 6 15 24 9 102 -11 147 -16 35 -24 42 -48 42 -21 0 -32 -7 -40 -25z"/>
<path d="M6172 11442 c-48 -31 -23 -217 26 -197 9 4 27 10 39 12 28 6 36 31
27 80 -9 50 -30 90 -53 103 -23 12 -23 12 -39 2z"/>
<path d="M5310 11235 c-23 -27 -23 -96 -1 -150 11 -27 20 -44 20 -37 1 15 47
16 57 1 12 -20 26 19 26 71 -1 93 -63 162 -102 115z"/>
<path d="M14953 11140 c-24 -10 -43 -20 -43 -22 0 -2 29 -63 65 -136 36 -72
65 -138 65 -145 0 -8 3 -17 8 -21 4 -4 7 -11 7 -14 1 -4 11 -34 24 -67 22 -56
47 -143 56 -190 2 -11 13 -67 26 -125 19 -88 23 -135 23 -290 1 -162 -2 -195
-22 -263 -76 -265 -271 -476 -594 -643 l-89 -45 7 -152 6 -152 -53 -22 c-121
-49 -267 -83 -354 -83 -30 0 -56 -4 -59 -8 -3 -5 -14 -64 -26 -133 -11 -68
-25 -146 -30 -174 -6 -27 -24 -122 -41 -210 -123 -645 -216 -1018 -331 -1325
-67 -179 -138 -303 -216 -378 l-23 -22 1053 0 c710 1 1063 -3 1082 -10 51 -19
53 -17 60 88 9 120 18 178 62 363 31 128 110 365 143 427 9 17 7 40 -10 109
-34 141 -105 390 -153 539 -25 76 -44 138 -43 139 99 51 233 186 304 306 107
180 147 341 146 574 -1 227 -43 403 -153 630 -96 199 -173 300 -401 525 -223
221 -314 336 -291 368 25 36 45 85 46 112 1 15 4 26 7 24 10 -6 21 98 18 178
-2 77 -25 162 -40 152 -5 -3 -6 1 -4 8 7 18 -62 83 -104 97 -48 16 -79 14
-128 -9z"/>
<path d="M4085 10881 c-16 -4 -41 -14 -55 -21 l-25 -14 35 -6 c19 -3 36 -2 38
2 9 21 142 -24 198 -66 l40 -31 -77 0 c-71 -1 -81 -3 -128 -35 -74 -51 -70
-61 15 -35 28 8 88 15 140 15 85 0 94 -2 115 -25 13 -13 28 -25 33 -25 24 0
-31 107 -83 163 -56 60 -172 97 -246 78z"/>
<path d="M14705 10852 c-31 -6 -45 -32 -45 -81 1 -53 20 -114 45 -141 15 -16
16 -22 5 -35 -25 -30 -2 -24 79 22 77 43 92 66 36 56 -21 -5 -23 -1 -30 49
-12 85 -49 139 -90 130z"/>
<path d="M5532 10810 c-30 -13 -55 -73 -47 -112 12 -54 44 -114 83 -159 l39
-43 39 13 c21 7 93 15 158 18 96 5 117 3 111 -7 -5 -9 -4 -11 3 -6 13 8 96
-25 106 -43 12 -19 46 -12 92 20 78 53 109 133 81 202 -24 56 -42 61 -164 41
-133 -20 -184 -14 -288 37 -86 42 -170 58 -213 39z"/>
<path d="M14006 10721 c-23 -25 -24 -113 -3 -163 l15 -37 -30 -10 c-17 -6 -29
-13 -27 -15 8 -7 219 -18 219 -10 0 11 -33 33 -50 34 -12 0 -14 12 -12 59 3
41 -1 69 -13 92 -36 71 -67 86 -99 50z"/>
<path d="M14476 10660 c16 -82 65 -148 161 -212 62 -42 77 -69 75 -136 -2 -67
14 -52 24 22 9 61 -8 97 -60 130 -71 45 -135 109 -172 172 -32 54 -34 56 -28
24z"/>
<path d="M14878 10499 c-73 -59 -75 -148 -7 -218 37 -37 45 -41 90 -41 124 0
200 126 134 223 -33 47 -72 67 -132 67 -39 0 -56 -6 -85 -31z"/>
<path d="M13856 10404 c-68 -47 -85 -128 -39 -199 75 -119 252 -76 269 67 15
122 -125 203 -230 132z"/>
<path d="M14130 10268 c-86 -59 -77 -245 18 -357 l27 -32 65 15 c134 32 244
12 327 -59 46 -39 53 -39 121 7 91 62 112 192 44 271 -26 30 -83 39 -178 27
-111 -14 -135 -6 -202 70 -73 82 -155 103 -222 58z"/>
<path d="M8690 9906 c-15 -42 -22 -71 -12 -58 7 10 11 5 16 -19 3 -18 4 -34 1
-37 -3 -3 -5 2 -5 11 0 10 -6 17 -14 17 -13 0 -18 -15 -98 -310 -21 -80 -46
-165 -53 -189 -11 -33 -12 -42 -2 -38 8 3 13 -7 14 -29 1 -19 -3 -32 -8 -29
-5 4 -9 -1 -9 -9 0 -9 -9 -25 -20 -36 -11 -11 -20 -26 -20 -34 0 -8 -4 -18
-10 -21 -5 -3 -10 -12 -10 -18 0 -7 4 -6 10 3 12 17 4 -34 -12 -88 -5 -18 -7
-44 -4 -58 4 -13 2 -24 -4 -24 -11 0 -14 13 -10 45 3 31 -10 12 -14 -21 -2
-16 -9 -42 -16 -59 -7 -16 -13 -59 -13 -95 0 -57 -1 -60 -7 -25 -5 27 -8 32
-9 15 -2 -37 -27 -114 -37 -117 -13 -3 -35 16 -68 59 -18 25 -33 35 -43 31
-11 -4 -14 -2 -9 5 8 13 -4 15 -28 6 -17 -7 -22 -34 -6 -34 5 0 7 -7 3 -16 -5
-15 -7 -15 -15 1 -6 9 -8 25 -5 36 3 10 1 19 -5 19 -6 0 -8 6 -5 14 3 7 -3 27
-14 45 -10 17 -16 31 -14 31 3 0 -11 15 -32 33 -21 17 -42 37 -48 43 -33 35
-116 94 -125 89 -6 -4 -10 -3 -9 2 3 19 -2 27 -10 15 -6 -10 -11 -9 -22 4 -9
12 -10 15 -1 10 6 -4 12 -2 12 3 0 11 -13 15 -38 12 -8 -1 -16 7 -19 18 -4 16
-11 19 -28 15 -15 -4 -24 0 -29 12 -5 14 -4 15 9 4 9 -7 18 -10 21 -8 6 7 -50
48 -65 48 -6 0 -11 4 -11 8 0 5 -28 26 -62 46 -47 28 -64 33 -70 24 -6 -9 -8
-7 -6 7 2 16 -2 19 -19 17 -17 -2 -21 1 -17 12 5 12 2 15 -10 10 -11 -4 -26 3
-42 21 -18 20 -31 25 -48 21 -16 -4 -26 -1 -29 9 -4 10 -1 12 11 9 9 -3 -16
13 -57 34 -41 22 -82 37 -92 35 -9 -3 -20 0 -23 6 -5 7 0 9 11 6 10 -3 -25 15
-77 41 -65 31 -102 44 -120 40 -14 -2 -32 0 -40 5 -13 8 -13 10 0 20 13 9 13
10 0 6 -8 -2 -22 1 -30 8 -25 20 -98 45 -114 39 -8 -3 -23 -1 -33 6 -15 9 -14
10 7 4 53 -14 9 7 -76 37 -49 18 -105 32 -124 32 -19 0 -29 2 -21 5 15 5 -46
30 -89 36 -14 3 -33 7 -43 11 -12 5 -17 3 -15 -6 2 -7 -6 -14 -17 -16 -16 -3
-17 -2 -5 6 13 10 13 11 0 11 -13 0 -13 2 -1 9 12 8 8 11 -15 16 -16 3 -48 10
-71 16 -52 11 -73 12 -56 1 7 -4 -6 -8 -30 -9 -23 0 -33 2 -22 4 39 9 35 19
-7 16 -50 -4 -59 -11 -64 -50 -8 -72 -15 -106 -32 -148 -18 -49 -109 -164
-129 -164 -16 -1 -17 -13 -1 -29 8 -8 9 -12 1 -12 -6 0 -13 6 -16 13 -3 9 -9
9 -30 -2 -14 -8 -24 -18 -21 -22 3 -5 -1 -6 -9 -3 -8 3 -42 -5 -76 -16 -54
-19 -78 -21 -194 -18 -123 4 -137 6 -201 36 -70 33 -156 108 -156 137 0 8 -3
15 -8 15 -11 0 -39 58 -55 115 -14 50 -14 50 -63 56 -27 4 -65 11 -84 16 -19
5 -46 6 -60 3 -22 -6 -20 -8 20 -18 l45 -10 -61 1 c-34 1 -60 5 -58 8 4 6 -52
-6 -159 -35 -32 -9 -60 -16 -62 -16 -2 0 -2 -7 1 -15 4 -10 0 -15 -11 -15 -10
0 -13 5 -9 12 4 6 3 9 -2 7 -5 -3 -20 -10 -34 -16 -143 -62 -334 -164 -342
-181 -2 -4 -20 -16 -40 -26 -39 -20 -47 -31 -25 -39 6 -2 3 -3 -8 -1 -11 2
-27 -1 -35 -6 -8 -5 -10 -10 -5 -10 6 0 10 -16 11 -35 0 -34 -9 -45 -20 -26
-4 5 -1 11 6 13 10 4 9 8 -2 20 -15 15 -40 14 -40 -3 0 -4 7 -5 17 -2 11 4 14
3 9 -6 -4 -6 -16 -11 -26 -9 -11 2 -20 -1 -20 -7 -1 -5 -8 -21 -16 -33 -9 -13
-13 -27 -9 -30 3 -4 10 0 15 8 6 8 10 11 10 5 0 -5 -5 -17 -10 -25 -9 -13 -11
-13 -20 0 -9 13 -11 13 -19 0 -6 -8 -13 -11 -17 -7 -4 3 7 21 24 39 18 17 30
34 27 36 -3 3 -18 -8 -34 -24 -16 -16 -48 -47 -71 -69 -22 -22 -36 -41 -31
-43 20 -7 11 -24 -8 -19 -14 3 -36 -13 -82 -59 -34 -36 -59 -68 -55 -71 4 -4
13 2 20 13 37 50 45 58 51 52 4 -4 -11 -26 -34 -50 -22 -24 -41 -46 -41 -50 0
-5 -5 -8 -11 -8 -6 0 -8 8 -5 18 6 15 -10 0 -65 -66 -10 -12 -19 -26 -19 -31
0 -5 -7 -14 -15 -21 -9 -7 -14 -19 -11 -27 4 -9 1 -11 -6 -7 -8 5 -9 2 -5 -10
5 -13 3 -17 -7 -13 -10 4 -13 1 -9 -8 3 -9 -3 -18 -15 -22 -11 -5 -43 -43 -72
-85 -41 -60 -50 -82 -44 -100 6 -20 5 -21 -8 -10 -13 10 -17 10 -22 -3 -3 -9
-2 -13 4 -10 5 3 14 -4 20 -15 6 -12 7 -20 1 -20 -5 0 -11 5 -13 11 -8 23 -35
-5 -68 -69 -19 -37 -38 -69 -41 -72 -12 -10 -79 -150 -72 -150 5 0 3 -4 -2 -8
-18 -13 -38 -60 -30 -71 3 -7 1 -10 -6 -9 -7 2 -19 -18 -28 -47 -8 -27 -18
-52 -22 -55 -14 -12 -80 -200 -73 -211 4 -8 3 -9 -4 -5 -13 8 -17 -9 -13 -54
1 -20 0 -22 -10 -10 -8 11 -9 4 -5 -30 3 -28 2 -38 -3 -25 -7 17 -11 11 -25
-34 -19 -64 -19 -64 -6 -56 13 8 13 -5 0 -25 -9 -13 -10 -13 -10 0 0 11 -4 9
-13 -5 -7 -12 -12 -58 -12 -113 0 -74 -2 -86 -9 -60 -9 31 -10 31 -13 8 -2
-14 -8 -41 -13 -60 -5 -19 -12 -62 -15 -95 -4 -33 -9 -78 -12 -100 -11 -95
-14 -397 -3 -390 7 5 10 -7 9 -37 -3 -62 9 -106 32 -113 13 -4 19 -15 18 -33
l-1 -27 -11 28 c-6 15 -15 27 -20 27 -4 0 -6 -3 -4 -7 2 -5 14 -41 27 -80 13
-40 27 -73 32 -73 4 0 8 -8 8 -17 0 -15 2 -14 15 3 17 22 20 12 5 -17 -16 -30
3 -23 22 9 10 15 18 21 18 14 0 -7 -7 -24 -16 -37 -18 -27 -16 -33 39 -98 22
-27 25 -27 41 -12 9 9 16 11 16 5 0 -6 -7 -13 -15 -16 -23 -9 -18 -24 8 -20
12 2 21 9 20 15 -2 6 2 11 7 11 6 0 10 -10 10 -21 0 -17 -5 -20 -21 -16 -21 6
-21 5 2 -21 45 -51 59 -60 82 -55 17 5 19 3 10 -7 -9 -9 -4 -19 21 -40 25 -23
40 -28 74 -26 45 2 53 -6 25 -24 -17 -11 -17 -11 1 -6 14 5 17 2 12 -9 -3 -10
1 -18 12 -22 9 -3 41 -17 71 -30 30 -13 60 -22 67 -19 8 3 13 0 11 -6 -2 -10
81 -34 158 -44 119 -16 332 -27 275 -14 -24 5 -5 7 58 5 56 -1 88 1 80 6 -8 6
10 9 47 8 33 -1 94 6 135 15 41 10 93 20 115 23 37 6 38 7 15 15 -16 5 -7 5
24 2 33 -4 46 -2 41 5 -3 6 -21 11 -38 12 l-32 1 32 8 c18 4 45 5 60 2 25 -5
26 -6 8 -14 -13 -5 -8 -6 15 -2 19 3 40 13 47 21 6 8 17 12 23 8 17 -11 60 4
60 20 0 8 7 15 16 15 14 0 14 -3 4 -15 -10 -13 -9 -15 9 -15 11 0 21 5 21 11
0 7 10 9 28 5 21 -5 24 -4 12 4 -11 9 -6 10 24 5 23 -4 42 -2 45 4 4 5 25 11
48 12 23 2 40 6 38 10 -3 3 14 6 38 6 23 0 78 7 123 14 64 11 80 17 76 29 -4
12 -2 13 9 3 8 -6 30 -10 49 -8 19 2 52 4 73 4 23 1 36 5 32 11 -4 6 10 10 34
10 41 0 41 0 41 39 0 63 28 202 53 267 14 34 44 88 68 120 24 33 44 66 44 74
0 9 8 14 20 13 41 -4 112 -22 163 -42 29 -11 52 -17 52 -12 0 5 -6 12 -12 14
-10 4 -10 6 0 6 6 1 20 -7 31 -18 10 -10 51 -33 92 -52 41 -18 101 -49 134
-68 61 -35 144 -52 182 -36 16 7 15 9 -7 15 -14 5 336 8 777 9 441 1 804 -2
806 -6 3 -5 -347 -7 -776 -6 -501 2 -777 -1 -767 -7 9 -6 314 -9 788 -10 l772
0 1 22 c0 19 2 20 7 6 8 -20 6 174 -2 307 -7 98 -20 143 -48 163 -10 7 -18 20
-18 29 0 13 5 11 23 -7 l22 -25 3 38 c2 20 10 49 18 65 14 27 14 26 8 -15 -4
-26 -3 -43 3 -43 6 0 15 19 21 43 l11 42 -2 -45 c-2 -34 1 -44 12 -42 8 2 21
0 30 -4 22 -10 53 -13 141 -14 43 0 69 -4 62 -9 -8 -5 15 -8 55 -9 70 -1 65
15 -7 18 -30 2 -27 4 19 11 30 5 56 7 59 4 3 -3 -6 -6 -19 -6 -15 -1 -9 -4 16
-9 49 -10 125 -1 125 14 0 7 3 7 8 -1 8 -13 76 0 172 34 25 8 52 17 60 20 13
4 13 5 0 14 -11 7 -6 8 15 3 23 -4 26 -3 15 5 -12 9 -9 11 15 11 17 0 39 7 49
15 11 8 14 15 7 15 -7 0 -9 5 -6 10 5 7 11 8 19 1 8 -6 19 -3 36 10 21 17 22
19 3 10 -31 -16 -43 -13 -14 3 14 8 30 12 36 10 6 -3 22 7 35 21 24 25 16 36
-10 13 -12 -11 -12 -10 -1 5 8 10 21 15 31 12 13 -4 36 16 84 72 36 43 66 83
66 89 0 6 6 16 13 22 7 6 12 29 12 51 0 22 4 39 10 38 5 -1 9 12 7 28 -2 29
-2 30 11 7 l13 -23 12 23 c26 51 48 136 46 180 -1 26 2 46 6 43 10 -6 20 20
26 69 3 22 7 44 10 48 3 4 1 8 -4 8 -5 0 -13 -19 -17 -42 -4 -24 -10 -36 -13
-28 -3 10 -9 3 -17 -20 -12 -34 -13 -33 -10 28 1 35 8 68 15 75 10 10 11 7 6
-15 -3 -14 -9 -33 -12 -42 -5 -12 -2 -15 10 -10 10 4 16 18 16 36 0 21 6 31
20 35 22 6 23 8 22 208 0 106 1 112 7 50 l7 -70 3 58 c2 31 5 69 7 85 13 87
15 152 6 152 -6 0 -13 -10 -15 -22 -3 -16 -5 -13 -6 11 -1 24 3 32 13 28 10
-4 15 7 20 40 9 65 6 532 -3 509 -14 -36 -18 -2 -11 84 3 47 3 96 -2 110 -5
13 -9 47 -8 75 1 27 0 73 -1 100 -2 37 -4 27 -9 -40 -4 -68 -6 -47 -6 89 0
150 -3 179 -16 187 -11 6 -14 21 -12 61 3 39 1 46 -5 28 -6 -18 -9 -1 -10 60
-1 125 -2 131 -23 124 -21 -6 -24 6 -5 25 10 10 9 12 -3 10 -8 -2 -44 0 -80 4
-36 4 -87 3 -115 -2 -45 -8 -47 -9 -15 -11 49 -2 78 -14 61 -25 -7 -4 -16 -3
-20 2 -7 11 -161 32 -161 22 0 -9 -102 -18 -120 -10 -16 6 90 21 151 21 20 0
47 4 60 9 25 10 -19 14 -156 13 -33 0 -62 4 -65 8 -3 4 -34 9 -68 12 -58 4
-65 2 -72 -16z"/>
<path d="M14074 9113 c1 -78 -5 -136 -22 -207 -12 -55 -20 -102 -17 -104 3 -3
5 0 5 7 0 7 8 25 18 39 39 57 105 234 117 313 7 46 7 46 -25 53 -79 15 -76 18
-76 -101z"/>
<path d="M23107 8773 c-55 -236 -117 -574 -167 -913 -39 -266 -69 -664 -75
-1000 -6 -308 3 -335 29 -95 9 77 23 199 31 270 9 72 22 189 30 260 8 72 26
227 40 345 14 118 30 258 35 310 6 52 17 147 25 210 29 231 76 663 73 677 -2
8 -11 -21 -21 -64z"/>
<path d="M24805 8805 c13 -36 127 -339 147 -390 11 -27 29 -77 40 -110 12 -33
25 -65 29 -71 5 -6 18 -38 29 -70 12 -32 40 -108 65 -169 24 -60 56 -143 71
-182 15 -40 32 -73 37 -73 10 0 529 260 737 369 74 39 186 97 247 129 62 31
109 58 104 60 -5 2 -58 -20 -117 -48 -60 -29 -170 -80 -244 -115 -74 -35 -236
-113 -360 -174 -124 -61 -253 -124 -287 -141 l-63 -29 -14 32 c-9 18 -37 88
-64 157 -50 128 -230 563 -262 635 -10 22 -30 69 -45 105 -27 63 -68 133 -50
85z"/>
</g>
</svg>
